<svg width="20" height="21" viewBox="0 0 20 21" fill="none" xmlns="http://www.w3.org/2000/svg">
<path fill-rule="evenodd" clip-rule="evenodd" d="M19.4295 14.6327L15.0545 12.7577C14.6705 12.594 14.2247 12.7039 13.9607 13.0272L12.0232 15.3944C8.98244 13.9607 6.53533 11.5136 5.10163 8.47286L7.46885 6.53533C7.79284 6.27182 7.90284 5.82544 7.73839 5.44157L5.86337 1.06652C5.68215 0.65104 5.23114 0.42308 4.78914 0.52354L0.72659 1.46105C0.3012 1.55928 -8e-05 1.93815 2e-05 2.37473C2e-05 12.3944 8.12121 20.4999 18.1252 20.4999C18.562 20.5002 18.9411 20.1989 19.0393 19.7734L19.9768 15.7108C20.0766 15.2667 19.847 14.8143 19.4296 14.6327H19.4295Z" fill="currentColor"/>
</svg>
