<svg width="9" height="14" viewBox="0 0 9 14" fill="none" xmlns="http://www.w3.org/2000/svg">
<path d="M8.55275 0.393359C8.55275 0.290253 8.51179 0.19137 8.43888 0.118463C8.36597 0.0455561 8.26709 0.00459735 8.16398 0.00459735H6.22018C5.24137 -0.0441604 4.28306 0.296473 3.55462 0.95207C2.82617 1.60767 2.38683 2.52493 2.33257 3.50345V5.60276H0.388761C0.285655 5.60276 0.186772 5.64372 0.113866 5.71662C0.0409587 5.78953 0 5.88841 0 5.99152V8.01308C0 8.11618 0.0409587 8.21507 0.113866 8.28797C0.186772 8.36088 0.285655 8.40184 0.388761 8.40184H2.33257V13.6112C2.33257 13.7143 2.37353 13.8132 2.44643 13.8861C2.51934 13.959 2.61822 14 2.72133 14H5.05389C5.157 14 5.25588 13.959 5.32879 13.8861C5.4017 13.8132 5.44266 13.7143 5.44266 13.6112V8.40184H7.47976C7.56622 8.40308 7.65062 8.37547 7.71962 8.32337C7.78862 8.27126 7.83828 8.19765 7.86075 8.11416L8.42057 6.0926C8.43603 6.03516 8.43811 5.97493 8.42664 5.91656C8.41517 5.85819 8.39046 5.80323 8.35441 5.75591C8.31836 5.70859 8.27193 5.67018 8.21869 5.64362C8.16546 5.61707 8.10684 5.60309 8.04736 5.60276H5.44266V3.50345C5.462 3.31099 5.55238 3.13266 5.69615 3.00326C5.83992 2.87387 6.02676 2.80271 6.22018 2.80368H8.16398C8.26709 2.80368 8.36597 2.76272 8.43888 2.68981C8.51179 2.61691 8.55275 2.51802 8.55275 2.41492V0.393359Z" fill="white"/>
</svg>
