<svg width="15" height="15" viewBox="0 0 15 15" fill="none" xmlns="http://www.w3.org/2000/svg">
<g clip-path="url(#clip0_393_1311)">
<path d="M9.19187 8.30813L10.1075 9.22344C10.446 8.71249 10.6261 8.11292 10.625 7.5C10.625 5.77406 9.22594 4.375 7.5 4.375C5.77406 4.375 4.375 5.77406 4.375 7.5C4.375 9.22594 5.77406 10.625 7.5 10.625C8.13688 10.625 8.72937 10.4344 9.22344 10.1072L8.30781 9.19187C8.19062 9.0746 8.12482 8.91557 8.12487 8.74978C8.1249 8.66769 8.1411 8.5864 8.17254 8.51057C8.20399 8.43474 8.25006 8.36584 8.30813 8.30781C8.36619 8.24978 8.43512 8.20376 8.51098 8.17237C8.58683 8.14099 8.66813 8.12484 8.75022 8.12487C8.91602 8.12493 9.075 8.19085 9.19219 8.30813H9.19187Z" fill="white" fill-opacity="0.5"/>
<path fill-rule="evenodd" clip-rule="evenodd" d="M15 0H0V15H15V0ZM7.5 3.125C5.08375 3.125 3.125 5.08375 3.125 7.5C3.125 9.91625 5.08375 11.875 7.5 11.875C8.48281 11.875 9.38969 11.5509 10.12 11.0041L10.8081 11.6919C10.8658 11.7516 10.9347 11.7992 11.011 11.8319C11.0872 11.8647 11.1693 11.8819 11.2522 11.8827C11.3352 11.8834 11.4175 11.8676 11.4943 11.8361C11.5712 11.8047 11.6409 11.7583 11.6996 11.6996C11.7583 11.6409 11.8047 11.5712 11.8361 11.4943C11.8676 11.4175 11.8834 11.3352 11.8827 11.2522C11.8819 11.1693 11.8647 11.0872 11.8319 11.011C11.7992 10.9347 11.7516 10.8658 11.6919 10.8081L11.0041 10.12C11.5708 9.36422 11.8765 8.44467 11.875 7.5C11.875 5.08375 9.91625 3.125 7.5 3.125Z" fill="white" fill-opacity="0.5"/>
</g>
<rect x="0.25" y="0.25" width="14.5" height="14.5" rx="2.75" stroke="#A855F7" stroke-width="0.5"/>
<defs>
<clipPath id="clip0_393_1311">
<rect width="15" height="15" rx="3" fill="white"/>
</clipPath>
</defs>
</svg>
