<svg width="30" height="30" viewBox="0 0 21 21" fill="none" xmlns="http://www.w3.org/2000/svg">
<path d="M11.2812 14.9475V15.1975H11.5312V14.9475H11.2812ZM11.2812 10.8671V10.6171H11.0312V10.8671H11.2812ZM9.59296 14.9475H9.34296V15.1975H9.59296V14.9475ZM9.59296 10.8673H9.84296V10.6173H9.59296V10.8673ZM8.74951 10.8673H8.49951V11.1173H8.74951V10.8673ZM8.74951 9.46113V9.21113H8.49951V9.46113H8.74951ZM9.59296 9.46113V9.71113H9.84296V9.46113H9.59296ZM12.5489 6.78767H12.7989V6.53767H12.5489V6.78767ZM12.5489 8.19395V8.44395H12.7989V8.19395H12.5489ZM11.2831 8.75719L11.5331 8.75787V8.75719H11.2831ZM11.2812 9.46097L11.0312 9.46029L11.0305 9.71097H11.2812V9.46097ZM12.5569 9.46097L12.8055 9.48736L12.8348 9.21097H12.5569V9.46097ZM12.4076 10.8671V11.1171H12.6325L12.6562 10.8935L12.4076 10.8671ZM3.25 10.5376C3.25 6.53352 6.49592 3.2876 10.5 3.2876V2.7876C6.21978 2.7876 2.75 6.25738 2.75 10.5376H3.25ZM10.5 17.7875C6.49592 17.7875 3.25 14.5416 3.25 10.5376H2.75C2.75 14.8178 6.21978 18.2875 10.5 18.2875V17.7875ZM17.7499 10.5376C17.7499 14.5416 14.504 17.7875 10.5 17.7875V18.2875C14.7802 18.2875 18.2499 14.8178 18.2499 10.5376H17.7499ZM10.5 3.2876C14.504 3.2876 17.7499 6.53352 17.7499 10.5376H18.2499C18.2499 6.25738 14.7802 2.7876 10.5 2.7876V3.2876ZM11.5312 14.9475V10.8671H11.0312V14.9475H11.5312ZM9.59296 15.1975H11.2812V14.6975H9.59296V15.1975ZM9.34296 10.8673V14.9475H9.84296V10.8673H9.34296ZM8.74951 11.1173H9.59296V10.6173H8.74951V11.1173ZM8.49951 9.46113V10.8673H8.99951V9.46113H8.49951ZM9.59296 9.21113H8.74951V9.71113H9.59296V9.21113ZM9.34296 8.6169V9.46113H9.84296V8.6169H9.34296ZM11.4224 6.53767C10.707 6.53767 10.1693 6.71836 9.81608 7.10304C9.46682 7.48346 9.34296 8.01537 9.34296 8.6169H9.84296C9.84296 8.07132 9.95724 7.68861 10.1844 7.44119C10.4076 7.19804 10.7846 7.03767 11.4224 7.03767V6.53767ZM12.5489 6.53767H11.4224V7.03767H12.5489V6.53767ZM12.7989 8.19395V6.78767H12.2989V8.19395H12.7989ZM11.8447 8.44395H12.5489V7.94395H11.8447V8.44395ZM11.5331 8.75719C11.5331 8.66606 11.5356 8.60301 11.5435 8.55499C11.5511 8.50896 11.5609 8.49512 11.5631 8.49242C11.5641 8.49108 11.5661 8.48877 11.5714 8.48537C11.5771 8.48164 11.5886 8.47548 11.6093 8.46902C11.6529 8.45538 11.7258 8.44395 11.8447 8.44395V7.94395C11.5685 7.94395 11.3206 7.99151 11.1698 8.18367C11.0973 8.27594 11.0656 8.37999 11.0501 8.47395C11.035 8.56592 11.0331 8.66496 11.0331 8.75719H11.5331ZM11.5312 9.46165L11.5331 8.75787L11.0331 8.75651L11.0312 9.46029L11.5312 9.46165ZM12.5569 9.21097H11.2812V9.71097H12.5569V9.21097ZM12.6562 10.8935L12.8055 9.48736L12.3083 9.43458L12.159 10.8407L12.6562 10.8935ZM11.2812 11.1171H12.4076V10.6171H11.2812V11.1171Z" fill="#8F00FF"/>
<path opacity="0.25" fill-rule="evenodd" clip-rule="evenodd" d="M0 10.5C0 4.70101 4.70101 0 10.5 0C16.299 0 21 4.70101 21 10.5C21 16.299 16.299 21 10.5 21C4.70101 21 0 16.299 0 10.5Z" fill="#A855F7" fill-opacity="0.5"/>
</svg>
