<svg width="14" height="14" viewBox="0 0 14 14" fill="none" xmlns="http://www.w3.org/2000/svg">
<path d="M4.11664 0C1.85691 0 0 1.85436 0 4.11664V9.88336C0 12.1431 1.85436 14 4.11664 14H9.88336C12.1431 14 14 12.1456 14 9.88336V4.11727C14 1.85691 12.1456 0 9.88336 0H4.11664ZM4.11664 1.27273H9.88336C10.257 1.27222 10.627 1.34544 10.9723 1.48818C11.3175 1.63093 11.6313 1.84039 11.8954 2.10457C12.1596 2.36875 12.3691 2.68246 12.5118 3.02772C12.6546 3.37299 12.7278 3.74303 12.7273 4.11664V9.88336C12.7278 10.257 12.6546 10.627 12.5118 10.9723C12.3691 11.3175 12.1596 11.6313 11.8954 11.8954C11.6313 12.1596 11.3175 12.3691 10.9723 12.5118C10.627 12.6546 10.257 12.7278 9.88336 12.7273H4.11727C3.74361 12.7279 3.37351 12.6547 3.02817 12.512C2.68283 12.3693 2.36904 12.1598 2.10479 11.8957C1.84054 11.6315 1.63103 11.3177 1.48824 10.9724C1.34546 10.6271 1.27222 10.257 1.27273 9.88336V4.11727C1.27214 3.74361 1.3453 3.37351 1.488 3.02817C1.6307 2.68283 1.84015 2.36904 2.10434 2.10479C2.36853 1.84054 2.68227 1.63103 3.02758 1.48824C3.37288 1.34546 3.74297 1.27222 4.11664 1.27273ZM10.7584 2.66509C10.6826 2.66475 10.6074 2.67944 10.5373 2.70829C10.4672 2.73715 10.4035 2.7796 10.3499 2.83321C10.2963 2.88681 10.2539 2.9505 10.225 3.0206C10.1962 3.09071 10.1815 3.16583 10.1818 3.24164C10.1818 3.56236 10.4376 3.81818 10.7584 3.81818C10.8342 3.8186 10.9094 3.80398 10.9796 3.77517C11.0498 3.74635 11.1135 3.70391 11.1672 3.65029C11.2209 3.59668 11.2634 3.53296 11.2923 3.46282C11.3212 3.39267 11.3359 3.3175 11.3355 3.24164C11.3359 3.16578 11.3212 3.0906 11.2923 3.02046C11.2634 2.95031 11.2209 2.88659 11.1672 2.83298C11.1135 2.77937 11.0498 2.73692 10.9796 2.70811C10.9094 2.67929 10.8342 2.66467 10.7584 2.66509ZM7 3.18182C4.9 3.18182 3.18182 4.9 3.18182 7C3.18182 9.1 4.9 10.8182 7 10.8182C9.1 10.8182 10.8182 9.1 10.8182 7C10.8182 4.9 9.1 3.18182 7 3.18182ZM7 4.45455C8.41464 4.45455 9.54545 5.58536 9.54545 7C9.54545 8.41464 8.41464 9.54545 7 9.54545C5.58536 9.54545 4.45455 8.41464 4.45455 7C4.45455 5.58536 5.58536 4.45455 7 4.45455Z" fill="white"/>
</svg>
