<svg width="30" height="30" viewBox="0 0 21 21" fill="none" xmlns="http://www.w3.org/2000/svg">
<path opacity="0.25" fill-rule="evenodd" clip-rule="evenodd" d="M0 10.5C0 4.70101 4.70101 0 10.5 0C16.299 0 21 4.70101 21 10.5C21 16.299 16.299 21 10.5 21C4.70101 21 0 16.299 0 10.5Z" fill="#A855F7" fill-opacity="0.5"/>
<path d="M8.53946 6.56176L8.53378 6.43689L8.53374 6.43689L8.53946 6.56176ZM11.8367 6.56176L11.8425 6.43689L11.8424 6.43689L11.8367 6.56176ZM12.8084 6.74759L12.7632 6.86413L12.7632 6.86414L12.8084 6.74759ZM13.5167 7.20885L13.4284 7.29724L13.4284 7.29727L13.5167 7.20885ZM13.9784 7.91743L14.095 7.87236L14.0949 7.87206L13.9784 7.91743ZM14.1642 8.88827L14.2891 8.88266L14.2891 8.88241L14.1642 8.88827ZM14.1642 12.1866L14.2891 12.1925L14.2891 12.1922L14.1642 12.1866ZM13.9784 13.1575L14.0949 13.2029L14.095 13.2025L13.9784 13.1575ZM13.5167 13.866L13.4284 13.7775L13.4283 13.7776L13.5167 13.866ZM12.8087 14.3276L12.7634 14.2111L12.7634 14.2111L12.8087 14.3276ZM11.8373 14.5135L11.843 14.6383L11.843 14.6383L11.8373 14.5135ZM8.53913 14.5135L8.53341 14.6383L8.53345 14.6383L8.53913 14.5135ZM7.56812 14.3276L7.61341 14.2111L7.6134 14.2111L7.56812 14.3276ZM6.85979 13.866L6.94822 13.7776L6.94816 13.7776L6.85979 13.866ZM6.39845 13.1574L6.28194 13.2027L6.28194 13.2027L6.39845 13.1574ZM6.21262 12.1865L6.08774 12.1922L6.08775 12.1923L6.21262 12.1865ZM6.21253 8.88819L6.08766 8.88257L6.08766 8.88261L6.21253 8.88819ZM6.39837 7.91735L6.51483 7.96275L6.51483 7.96274L6.39837 7.91735ZM6.86004 7.20885L6.94839 7.29727L6.94844 7.29722L6.86004 7.20885ZM7.56862 6.74759L7.61387 6.86412L7.61393 6.86409L7.56862 6.74759ZM2.81348 10.5376C2.81348 6.46448 6.11536 3.1626 10.1884 3.1626V2.9126C5.97729 2.9126 2.56348 6.32641 2.56348 10.5376H2.81348ZM10.1884 17.9125C6.11536 17.9125 2.81348 14.6106 2.81348 10.5376H2.56348C2.56348 14.7487 5.97729 18.1625 10.1884 18.1625V17.9125ZM17.5634 10.5376C17.5634 14.6106 14.2615 17.9125 10.1884 17.9125V18.1625C14.3996 18.1625 17.8134 14.7487 17.8134 10.5376H17.5634ZM10.1884 3.1626C14.2615 3.1626 17.5634 6.46448 17.5634 10.5376H17.8134C17.8134 6.32641 14.3996 2.9126 10.1884 2.9126V3.1626ZM10.1888 6.41259C9.10182 6.41259 8.96328 6.41734 8.53378 6.43689L8.54515 6.68663C8.96899 6.66734 9.10311 6.66259 10.1888 6.66259V6.41259ZM10.1876 6.66259H10.1888V6.41259H10.1876V6.66259ZM11.8424 6.43689C11.4129 6.41734 11.2749 6.41259 10.1876 6.41259V6.66259C11.2736 6.66259 11.4072 6.66734 11.831 6.68663L11.8424 6.43689ZM12.8536 6.63106C12.5845 6.52665 12.2801 6.45693 11.8425 6.43689L11.831 6.68663C12.245 6.70559 12.5223 6.7707 12.7632 6.86413L12.8536 6.63106ZM13.6051 7.12046C13.3696 6.88488 13.1321 6.739 12.8536 6.63105L12.7632 6.86414C13.0114 6.96036 13.2189 7.08781 13.4284 7.29724L13.6051 7.12046ZM14.0949 7.87206C13.9866 7.59409 13.8408 7.35593 13.6051 7.12043L13.4284 7.29727C13.6377 7.50644 13.7652 7.71461 13.8619 7.96281L14.0949 7.87206ZM14.2891 8.88241C14.2686 8.44484 14.1988 8.14072 14.095 7.87236L13.8618 7.96251C13.9547 8.20282 14.0199 8.48004 14.0394 8.89414L14.2891 8.88241ZM14.3134 10.5376C14.3134 9.45056 14.3084 9.31208 14.2891 8.88266L14.0394 8.89388C14.0584 9.3178 14.0634 9.45199 14.0634 10.5376H14.3134ZM14.2891 12.1922C14.3084 11.7628 14.3134 11.6247 14.3134 10.5376H14.0634C14.0634 11.6232 14.0584 11.7571 14.0394 12.181L14.2891 12.1922ZM14.095 13.2025C14.1988 12.9341 14.2686 12.6299 14.2891 12.1925L14.0394 12.1808C14.0199 12.5947 13.9547 12.872 13.8618 13.1124L14.095 13.2025ZM13.6051 13.9544C13.8408 13.7189 13.9866 13.4807 14.0949 13.2029L13.8619 13.1121C13.7652 13.3602 13.6377 13.5684 13.4284 13.7775L13.6051 13.9544ZM12.8539 14.4442C13.132 14.3361 13.3699 14.1899 13.6052 13.9543L13.4283 13.7776C13.2191 13.987 13.0113 14.1148 12.7634 14.2111L12.8539 14.4442ZM11.843 14.6383C12.2806 14.6183 12.5852 14.5486 12.8539 14.4441L12.7634 14.2111C12.5231 14.3045 12.2457 14.3696 11.8316 14.3886L11.843 14.6383ZM10.1883 14.6626C11.2754 14.6626 11.4135 14.6579 11.843 14.6383L11.8316 14.3886C11.4078 14.4079 11.2741 14.4126 10.1883 14.4126V14.6626ZM8.53345 14.6383C8.96294 14.6579 9.1014 14.6626 10.1883 14.6626V14.4126C9.1027 14.4126 8.96866 14.4079 8.54481 14.3886L8.53345 14.6383ZM7.52284 14.4441C7.79154 14.5486 8.09587 14.6183 8.53341 14.6383L8.54485 14.3886C8.13088 14.3696 7.85371 14.3045 7.61341 14.2111L7.52284 14.4441ZM6.77135 13.9543C7.00671 14.1899 7.24488 14.3361 7.52285 14.4442L7.6134 14.2111C7.36553 14.1148 7.15736 13.987 6.94822 13.7776L6.77135 13.9543ZM6.28194 13.2027C6.39 13.4807 6.53583 13.7189 6.77141 13.9544L6.94816 13.7776C6.7389 13.5684 6.6114 13.3602 6.51496 13.1121L6.28194 13.2027ZM6.08775 12.1923C6.10787 12.6299 6.17759 12.9341 6.28194 13.2027L6.51496 13.1121C6.42164 12.872 6.35653 12.5949 6.33748 12.1808L6.08775 12.1923ZM6.06345 10.5376C6.06345 11.6246 6.06828 11.7627 6.08774 12.1922L6.33749 12.1809C6.31828 11.757 6.31345 11.6233 6.31345 10.5376H6.06345ZM6.08766 8.88261C6.06845 9.31201 6.06345 9.45056 6.06345 10.5376H6.31345C6.31345 9.45199 6.31845 9.31771 6.33741 8.89378L6.08766 8.88261ZM6.2819 7.87196C6.17718 8.14063 6.10736 8.44504 6.08766 8.88257L6.33741 8.89381C6.35604 8.48 6.42122 8.20291 6.51483 7.96275L6.2819 7.87196ZM6.77168 7.12043C6.53601 7.35592 6.3902 7.59409 6.2819 7.87196L6.51483 7.96274C6.61154 7.71461 6.73906 7.50644 6.94839 7.29727L6.77168 7.12043ZM7.52337 6.63107C7.24531 6.73906 7.00712 6.88489 6.77163 7.12048L6.94844 7.29722C7.15762 7.08796 7.36577 6.96047 7.61387 6.86412L7.52337 6.63107ZM8.53374 6.43689C8.09612 6.45693 7.79186 6.52665 7.52331 6.6311L7.61393 6.86409C7.85405 6.7707 8.13113 6.70559 8.54518 6.68663L8.53374 6.43689Z" fill="white"/>
<path d="M10.055 7.25829L10.0551 7.13329L10.055 7.13329L10.055 7.25829ZM9.82953 7.25832H9.70453V7.38335L9.82955 7.38332L9.82953 7.25832ZM10.1884 7.25832L10.1883 7.38332H10.1884V7.25832ZM11.8047 7.28132L11.8104 7.15645L11.8104 7.15645L11.8047 7.28132ZM12.5474 7.41908L12.5926 7.30256L12.5926 7.30255L12.5474 7.41908ZM13.007 7.71824L12.9186 7.80661L12.9187 7.80663L13.007 7.71824ZM13.3064 8.17825L13.4229 8.13295L13.4229 8.1329L13.3064 8.17825ZM13.4441 8.92075L13.569 8.91507L13.569 8.91507L13.4441 8.92075ZM13.4441 12.1524L13.569 12.1581L13.569 12.1581L13.4441 12.1524ZM13.3064 12.8949L13.1899 12.8496L13.1899 12.8497L13.3064 12.8949ZM13.007 13.3544L12.9187 13.266L12.9187 13.2661L13.007 13.3544ZM12.5474 13.6536L12.5021 13.5371L12.5019 13.5372L12.5474 13.6536ZM11.8047 13.7914L11.8104 13.9163L11.8104 13.9163L11.8047 13.7914ZM8.57202 13.7914L8.56626 13.9163L8.56635 13.9163L8.57202 13.7914ZM7.82927 13.6535L7.78401 13.77L7.78405 13.7701L7.82927 13.6535ZM7.06993 12.8946L6.95342 12.9399L6.95344 12.9399L7.06993 12.8946ZM6.93218 12.1521L6.80731 12.1578L6.80731 12.1578L6.93218 12.1521ZM6.93218 8.91975L6.80731 8.91404L6.80731 8.91407L6.93218 8.91975ZM7.06993 8.17708L6.95341 8.13182L6.95341 8.13183L7.06993 8.17708ZM7.82927 7.41774L7.87461 7.53423L7.87469 7.5342L7.82927 7.41774ZM8.57202 7.27982L8.56638 7.15495L8.56629 7.15496L8.57202 7.27982ZM9.82953 7.25732H9.95453V7.13218L9.82939 7.13232L9.82953 7.25732ZM12.3233 7.92216V8.04716H12.4483V7.92216H12.3233ZM12.3233 7.922V7.797H12.1983V7.922H12.3233ZM10.1889 8.48329V8.35829H10.1889L10.1889 8.48329ZM10.055 7.13329L9.82951 7.13332L9.82955 7.38332L10.0551 7.38329L10.055 7.13329ZM10.1884 7.13332L10.0551 7.13329L10.055 7.38329L10.1883 7.38332L10.1884 7.13332ZM11.8104 7.15645C11.3857 7.13715 11.2568 7.13332 10.1884 7.13332V7.38332C11.2559 7.38332 11.3802 7.38716 11.799 7.4062L11.8104 7.15645ZM12.5926 7.30255C12.4392 7.24298 12.2142 7.17492 11.8104 7.15645L11.799 7.40619C12.1752 7.4234 12.3735 7.48567 12.5021 7.5356L12.5926 7.30255ZM13.0955 7.62988C12.9431 7.47747 12.7953 7.38128 12.5926 7.30256L12.5021 7.5356C12.6728 7.60187 12.7911 7.67901 12.9186 7.80661L13.0955 7.62988ZM13.4229 8.1329C13.344 7.93034 13.2479 7.78229 13.0954 7.62986L12.9187 7.80663C13.0462 7.9342 13.1234 8.05282 13.1899 8.22359L13.4229 8.1329ZM13.569 8.91507C13.5506 8.51124 13.4825 8.28621 13.4229 8.13295L13.1899 8.22354C13.2398 8.35195 13.3021 8.55025 13.3193 8.92643L13.569 8.91507ZM13.5925 10.5366C13.5925 9.46853 13.5883 9.33961 13.569 8.91507L13.3193 8.92643C13.3383 9.34523 13.3425 9.46965 13.3425 10.5366H13.5925ZM13.569 12.1581C13.5883 11.7336 13.5925 11.6047 13.5925 10.5366H13.3425C13.3425 11.6035 13.3383 11.728 13.3193 12.1468L13.569 12.1581ZM13.4229 12.9402C13.4825 12.787 13.5505 12.5619 13.569 12.1581L13.3193 12.1467C13.3021 12.5229 13.2398 12.7213 13.1899 12.8496L13.4229 12.9402ZM13.0954 13.4429C13.2477 13.2906 13.3441 13.143 13.4229 12.9402L13.1899 12.8497C13.1236 13.0202 13.0464 13.1384 12.9187 13.266L13.0954 13.4429ZM12.5926 13.7701C12.7954 13.6914 12.9431 13.5952 13.0954 13.4428L12.9187 13.2661C12.791 13.3937 12.6728 13.4708 12.5021 13.5371L12.5926 13.7701ZM11.8104 13.9163C12.2141 13.8979 12.4394 13.83 12.5929 13.77L12.5019 13.5372C12.3737 13.5872 12.1753 13.6494 11.799 13.6666L11.8104 13.9163ZM10.1884 13.9398C11.2569 13.9398 11.3858 13.9356 11.8104 13.9163L11.799 13.6666C11.3802 13.6856 11.2558 13.6898 10.1884 13.6898V13.9398ZM8.56635 13.9163C8.99088 13.9356 9.11972 13.9398 10.1884 13.9398V13.6898C9.12084 13.6898 8.9965 13.6856 8.5777 13.6666L8.56635 13.9163ZM7.78405 13.7701C7.93751 13.8296 8.16249 13.8977 8.56626 13.9163L8.57779 13.6666C8.20155 13.6492 8.0032 13.5869 7.87449 13.537L7.78405 13.7701ZM7.28088 13.4427C7.43331 13.5952 7.58139 13.6913 7.78401 13.77L7.87452 13.537C7.70381 13.4707 7.58522 13.3935 7.45765 13.266L7.28088 13.4427ZM6.95344 12.9399C7.03233 13.1427 7.1285 13.2904 7.28088 13.4427L7.45765 13.266C7.33003 13.1383 7.25287 13.02 7.18642 12.8493L6.95344 12.9399ZM6.80731 12.1578C6.82569 12.5616 6.89384 12.7866 6.95342 12.9399L7.18644 12.8493C7.13652 12.7209 7.07417 12.5226 7.05705 12.1464L6.80731 12.1578ZM6.78418 10.5356C6.78418 11.6042 6.78801 11.7332 6.80731 12.1578L7.05705 12.1464C7.03802 11.7277 7.03418 11.6033 7.03418 10.5356H6.78418ZM6.80731 8.91407C6.78801 9.33866 6.78418 9.46694 6.78418 10.5356H7.03418C7.03418 9.4679 7.03802 9.34418 7.05705 8.92543L6.80731 8.91407ZM6.95341 8.13183C6.89384 8.28524 6.82577 8.51025 6.80731 8.91404L7.05705 8.92546C7.07425 8.54925 7.13652 8.35092 7.18645 8.22233L6.95341 8.13183ZM7.28088 7.62869C7.12849 7.78107 7.03213 7.92913 6.95341 8.13182L7.18645 8.22234C7.25273 8.05169 7.33004 7.93308 7.45765 7.80547L7.28088 7.62869ZM7.78392 7.30126C7.58136 7.38011 7.43331 7.47626 7.28088 7.62869L7.45765 7.80547C7.58522 7.6779 7.70384 7.60071 7.87461 7.53423L7.78392 7.30126ZM8.56629 7.15496C8.16259 7.1735 7.93744 7.24137 7.78384 7.30129L7.87469 7.5342C8.0031 7.48411 8.20145 7.42198 8.57776 7.40469L8.56629 7.15496ZM9.82939 7.13232C9.08268 7.13316 8.93775 7.13818 8.56638 7.15495L8.57766 7.4047C8.9443 7.38814 9.08537 7.38316 9.82967 7.38232L9.82939 7.13232ZM9.95453 7.25832V7.25732H9.70453V7.25832H9.95453ZM11.9683 8.402C11.9683 8.20602 12.1272 8.04716 12.3233 8.04716V7.79716C11.9893 7.79716 11.7183 8.06781 11.7183 8.402H11.9683ZM12.3233 8.757C12.1273 8.757 11.9683 8.59797 11.9683 8.402H11.7183C11.7183 8.73604 11.9892 9.007 12.3233 9.007V8.757ZM12.6783 8.402C12.6783 8.59796 12.5192 8.757 12.3233 8.757V9.007C12.6573 9.007 12.9283 8.73604 12.9283 8.402H12.6783ZM12.3233 8.047C12.5192 8.047 12.6783 8.20603 12.6783 8.402H12.9283C12.9283 8.06796 12.6573 7.797 12.3233 7.797V8.047ZM12.4483 7.92216V7.922H12.1983V7.92216H12.4483ZM10.1889 8.35829C8.98544 8.35834 8.00976 9.33404 8.00976 10.5375H8.25976C8.25976 9.47211 9.12351 8.60833 10.1889 8.60829L10.1889 8.35829ZM12.3678 10.5375C12.3678 9.33403 11.3923 8.35829 10.1889 8.35829V8.60829C11.2542 8.60829 12.1178 9.47206 12.1178 10.5375H12.3678ZM10.1889 12.7162C11.3924 12.7162 12.3678 11.7409 12.3678 10.5375H12.1178C12.1178 11.6028 11.2543 12.4662 10.1889 12.4662V12.7162ZM8.00976 10.5375C8.00976 11.741 8.98552 12.7162 10.1889 12.7162V12.4662C9.12352 12.4662 8.25976 11.6028 8.25976 10.5375H8.00976Z" fill="white"/>
<path fill-rule="evenodd" clip-rule="evenodd" d="M10.1878 9.20361C10.9242 9.20361 11.5212 9.80053 11.5212 10.537C11.5212 11.2733 10.9242 11.8703 10.1878 11.8703C9.45141 11.8703 8.85449 11.2733 8.85449 10.537C8.85449 9.80053 9.45141 9.20361 10.1878 9.20361V9.20361Z" stroke="white" stroke-width="0.25"/>
</svg>
