<svg width="10" height="10" viewBox="0 0 10 10" fill="none" xmlns="http://www.w3.org/2000/svg">
<path d="M0 5C0 2.23858 2.23858 0 5 0C7.76142 0 10 2.23858 10 5C10 7.76142 7.76142 10 5 10C2.23858 10 0 7.76142 0 5Z" fill="white"/>
<path d="M7.04423 5.34025L4.08469 3.0113C4.07696 3.00516 4.06766 3.00135 4.05788 3.0003C4.04809 2.99925 4.03821 3.001 4.02936 3.00535C4.02052 3.0097 4.01307 3.01648 4.00788 3.0249C4.00268 3.03332 3.99995 3.04305 4 3.05297V3.56427C4 3.59668 4.0151 3.62776 4.04005 3.64761L6.40348 5.50694L4.04005 7.36626C4.01444 7.38611 4 7.4172 4 7.44961V7.9609C4 8.00522 4.05055 8.0297 4.08469 8.00258L7.04423 5.67362C7.06938 5.65385 7.08973 5.62856 7.10373 5.59968C7.11773 5.5708 7.125 5.53908 7.125 5.50694C7.125 5.47479 7.11773 5.44308 7.10373 5.41419C7.08973 5.38531 7.06938 5.36002 7.04423 5.34025Z" fill="black"/>
</svg>
