<svg width="14" height="14" viewBox="0 0 14 14" fill="none" xmlns="http://www.w3.org/2000/svg">
<path d="M5.66667 5H3M3 3H5M11 11L8.84807 9.56538C8.343 9.22867 7.6781 9.25752 7.2041 9.63672V9.63672C6.69502 10.044 5.97165 10.044 5.46257 9.63672L3 7.66667M9.33333 6.33333C8.89131 6.33333 8.46738 6.15774 8.15482 5.84518C7.84226 5.53262 7.66667 5.10869 7.66667 4.66667C7.66667 4.22464 7.84226 3.80072 8.15482 3.48816C8.46738 3.17559 8.89131 3 9.33333 3C9.77536 3 10.1993 3.17559 10.5118 3.48816C10.8244 3.80072 11 4.22464 11 4.66667C11 5.10869 10.8244 5.53262 10.5118 5.84518C10.1993 6.15774 9.77536 6.33333 9.33333 6.33333Z" stroke="white" stroke-linecap="round" stroke-linejoin="round"/>
<path d="M-nan -nanL1 12.6V1.4C1 1.29391 1.04214 1.19217 1.11716 1.11716C1.19217 1.04214 1.29391 1 1.4 1H12.6C12.7061 1 12.8078 1.04214 12.8828 1.11716C12.9579 1.19217 13 1.29391 13 1.4V12.6C13 12.7061 12.9579 12.8078 12.8828 12.8828C12.8078 12.9579 12.7061 13 12.6 13H1.4C1.29391 13 1.19217 12.9579 1.11716 12.8828C1.04214 12.8078 1 12.7061 1 12.6L-nan -nanL-nan -nanZ" stroke="white"/>
</svg>
