<svg width="16" height="14" viewBox="0 0 16 14" fill="none" xmlns="http://www.w3.org/2000/svg">
<path d="M0 11.8432C0.794288 12.2826 6.5433 15.5964 10.6317 13.0423C14.7197 10.4881 14.494 6.08762 14.494 4.07082C14.8646 3.29506 15.6469 2.90059 15.6469 0.800608C14.8786 1.51048 14.1148 1.75178 13.3555 1.52531C12.6118 0.391317 11.5886 -0.110621 10.2854 0.0203192C8.33117 0.216729 7.61635 2.13389 7.82676 4.61475C4.81349 6.13827 2.4508 3.51 1.23281 1.52531C0.825994 3.08835 0.433997 4.96516 1.23281 7.04085C1.76563 8.4252 3.04662 9.59501 5.07496 10.5515C3.01904 11.6653 1.32752 12.0965 0 11.8432Z" fill="white"/>
</svg>
