<!DOCTYPE svg PUBLIC "-//W3C//DTD SVG 1.1//EN" "http://www.w3.org/Graphics/SVG/1.1/DTD/svg11.dtd">

<!-- Uploaded to: SVG Repo, www.svgrepo.com, Transformed by: SVG Repo Mixer Tools -->
<svg version="1.1" id="Layer_1" xmlns="http://www.w3.org/2000/svg" xmlns:xlink="http://www.w3.org/1999/xlink" viewBox="0 0 512 512" xml:space="preserve" fill="#FFFFFF">

<g id="SVGRepo_bgCarrier" stroke-width="0"/>

<g id="SVGRepo_tracerCarrier" stroke-linecap="round" stroke-linejoin="round"/>

<g id="SVGRepo_iconCarrier"> <g> <path style="fill:#FFFFFF;" d="M336.495,418.043h-160.99V309.422c0-44.487,35.954-80.55,80.441-80.55l0,0 c44.487,0,80.55,36.063,80.55,80.55v108.621H336.495z"/> <circle style="fill:#FFFFFF;" cx="255.949" cy="143.727" r="49.773"/> </g> <g> <path style="fill:#FFFFFF;" d="M175.505,418.043H49.112V332.75c0-34.932,28.318-63.25,63.25-63.25l0,0 c34.932,0,63.142,28.318,63.142,63.25V418.043z"/> <circle style="fill:#FFFFFF;" cx="112.365" cy="194.081" r="39.083"/> <path style="fill:#FFFFFF;" d="M462.924,418.043H336.423V332.75c0-34.932,28.318-63.25,63.25-63.25l0,0 c34.932,0,63.25,28.318,63.25,63.25v85.293H462.924z"/> <circle style="fill:#FFFFFF;" cx="399.676" cy="194.081" r="39.083"/> </g> <g> <path style="fill:#796887;" d="M255.946,203.703c33.068,0,59.971-26.903,59.971-59.972c0-33.068-26.903-59.971-59.971-59.971 c-33.069,0-59.972,26.903-59.972,59.971C195.974,176.799,222.877,203.703,255.946,203.703z M255.946,104.157 c21.821,0,39.573,17.753,39.573,39.573c0,21.821-17.752,39.574-39.573,39.574s-39.574-17.753-39.574-39.574 C216.372,121.909,234.125,104.157,255.946,104.157z"/> <path style="fill:#796887;" d="M112.363,243.361c27.175,0,49.283-22.108,49.283-49.283c0-27.175-22.108-49.283-49.283-49.283 S63.08,166.904,63.08,194.079C63.08,221.253,85.188,243.361,112.363,243.361z M112.363,165.194 c15.927,0,28.884,12.958,28.884,28.884s-12.957,28.884-28.884,28.884s-28.884-12.957-28.884-28.884S96.436,165.194,112.363,165.194 z"/> <path style="fill:#796887;" d="M399.674,243.361c27.175,0,49.282-22.108,49.282-49.283c0-27.175-22.108-49.283-49.282-49.283 s-49.283,22.108-49.283,49.283S372.5,243.361,399.674,243.361z M399.674,165.194c15.926,0,28.883,12.958,28.883,28.884 s-12.957,28.884-28.883,28.884c-15.927,0-28.884-12.957-28.884-28.884S383.747,165.194,399.674,165.194z"/> <path style="fill:#796887;" d="M501.801,428.241c5.632,0,10.199-4.566,10.199-10.199s-4.567-10.199-10.199-10.199h-28.677V332.75 c0-40.5-32.95-73.45-73.451-73.45c-22.522,0-42.698,10.198-56.181,26.209c-10.52-38.473-45.781-66.836-87.546-66.836 c-41.729,0-76.956,28.381-87.451,66.874c-13.464-16.033-33.626-26.247-56.132-26.247c-40.5,0-73.451,32.95-73.451,73.45v75.093 H10.199C4.566,407.843,0,412.409,0,418.042s4.566,10.199,10.199,10.199H501.801z M59.31,332.75 c0-29.252,23.799-53.051,53.052-53.051c29.193,0,52.943,23.799,52.943,53.051v75.093H59.31V332.75z M326.225,407.843H185.704 v-98.421c0-38.792,31.51-70.351,70.242-70.351c38.792,0,70.351,31.559,70.351,70.351L326.225,407.843z M346.695,407.843v-77.866 c1.447-27.969,24.657-50.279,52.979-50.279c29.252,0,53.051,23.799,53.051,53.051v75.093h-106.03V407.843z"/> <path style="fill:#796887;" d="M207.08,329.54c-5.633,0-10.199,4.566-10.199,10.199v48.939c0,5.633,4.566,10.199,10.199,10.199 s10.199-4.566,10.199-10.199V339.74C217.279,334.108,212.713,329.54,207.08,329.54z"/> <path style="fill:#796887;" d="M207.08,296.915c-5.633,0-10.199,4.566-10.199,10.199v2.176c0,5.633,4.566,10.199,10.199,10.199 s10.199-4.566,10.199-10.199v-2.176C217.279,301.481,212.713,296.915,207.08,296.915z"/> </g> </g>

</svg>