<svg width="30" height="30" viewBox="0 0 21 21" fill="none" xmlns="http://www.w3.org/2000/svg">
<path opacity="0.25" fill-rule="evenodd" clip-rule="evenodd" d="M0 10.5C0 4.70101 4.70101 0 10.5 0C16.299 0 21 4.70101 21 10.5C21 16.299 16.299 21 10.5 21C4.70101 21 0 16.299 0 10.5Z" fill="#A855F7" fill-opacity="0.5"/>
<path d="M14.3962 8.68616L14.2752 8.71764L14.2752 8.71772L14.3962 8.68616ZM13.6889 7.95994L13.6557 8.08046L13.6558 8.08049L13.6889 7.95994ZM14.3962 12.6404L14.2752 12.6088L14.2752 12.6089L14.3962 12.6404ZM13.6889 13.3666L13.6558 13.2461L13.6557 13.2461L13.6889 13.3666ZM7.43785 13.3666L7.47101 13.2461L7.47095 13.2461L7.43785 13.3666ZM6.73054 12.6404L6.85151 12.6089L6.85149 12.6088L6.73054 12.6404ZM6.73054 8.68616L6.85149 8.71771L6.85151 8.71764L6.73054 8.68616ZM7.43785 7.95994L7.47093 8.08049L7.47102 8.08046L7.43785 7.95994ZM3.18848 10.5376C3.18848 6.46448 6.49036 3.1626 10.5634 3.1626V2.9126C6.35229 2.9126 2.93848 6.32641 2.93848 10.5376H3.18848ZM10.5634 17.9125C6.49036 17.9125 3.18848 14.6106 3.18848 10.5376H2.93848C2.93848 14.7487 6.35229 18.1625 10.5634 18.1625V17.9125ZM17.9384 10.5376C17.9384 14.6106 14.6365 17.9125 10.5634 17.9125V18.1625C14.7746 18.1625 18.1884 14.7487 18.1884 10.5376H17.9384ZM10.5634 3.1626C14.6365 3.1626 17.9384 6.46448 17.9384 10.5376H18.1884C18.1884 6.32641 14.7746 2.9126 10.5634 2.9126V3.1626ZM14.5172 8.65467C14.4142 8.2592 14.1105 7.94602 13.7219 7.8394L13.6558 8.08049C13.9557 8.16278 14.1942 8.40624 14.2752 8.71764L14.5172 8.65467ZM14.5634 10.6633C14.6884 10.6633 14.6884 10.6633 14.6884 10.6632C14.6884 10.6632 14.6884 10.6632 14.6884 10.6632C14.6884 10.6631 14.6884 10.6631 14.6884 10.663C14.6884 10.6628 14.6884 10.6625 14.6884 10.6622C14.6884 10.6615 14.6884 10.6605 14.6884 10.6592C14.6884 10.6565 14.6883 10.6526 14.6883 10.6476C14.6883 10.6375 14.6882 10.6226 14.688 10.6035C14.6877 10.5653 14.687 10.5102 14.6857 10.442C14.6831 10.3058 14.6778 10.1173 14.6673 9.90862C14.6464 9.49485 14.6043 8.98876 14.5171 8.65459L14.2752 8.71772C14.3552 9.02412 14.3967 9.50658 14.4176 9.92122C14.428 10.1267 14.4332 10.3125 14.4358 10.4468C14.4371 10.514 14.4377 10.5683 14.438 10.6057C14.4382 10.6244 14.4383 10.6388 14.4383 10.6486C14.4383 10.6535 14.4384 10.6572 14.4384 10.6597C14.4384 10.6609 14.4384 10.6618 14.4384 10.6624C14.4384 10.6627 14.4384 10.6629 14.4384 10.6631C14.4384 10.6632 14.4384 10.6632 14.4384 10.6632C14.4384 10.6632 14.4384 10.6633 14.4384 10.6633C14.4384 10.6633 14.4384 10.6633 14.5634 10.6633ZM14.5171 12.6719C14.6043 12.3378 14.6464 11.8317 14.6673 11.4179C14.6778 11.2092 14.6831 11.0208 14.6857 10.8845C14.687 10.8164 14.6877 10.7612 14.688 10.723C14.6882 10.7039 14.6883 10.6891 14.6883 10.6789C14.6883 10.6739 14.6884 10.67 14.6884 10.6674C14.6884 10.6661 14.6884 10.665 14.6884 10.6644C14.6884 10.664 14.6884 10.6638 14.6884 10.6636C14.6884 10.6635 14.6884 10.6634 14.6884 10.6634C14.6884 10.6633 14.6884 10.6633 14.6884 10.6633C14.6884 10.6633 14.6884 10.6633 14.5634 10.6633C14.4384 10.6633 14.4384 10.6633 14.4384 10.6633C14.4384 10.6633 14.4384 10.6633 14.4384 10.6633C14.4384 10.6633 14.4384 10.6634 14.4384 10.6634C14.4384 10.6636 14.4384 10.6638 14.4384 10.6641C14.4384 10.6647 14.4384 10.6656 14.4384 10.6669C14.4384 10.6693 14.4383 10.673 14.4383 10.6779C14.4383 10.6877 14.4382 10.7022 14.438 10.7209C14.4377 10.7583 14.4371 10.8125 14.4358 10.8797C14.4332 11.0141 14.428 11.1998 14.4176 11.4053C14.3967 11.8199 14.3552 12.3024 14.2752 12.6088L14.5171 12.6719ZM13.722 13.4872C14.1105 13.3805 14.4142 13.0673 14.5172 12.6719L14.2752 12.6089C14.1942 12.9203 13.9557 13.1638 13.6558 13.2461L13.722 13.4872ZM10.5634 13.5383C10.5634 13.6633 10.5634 13.6633 10.5634 13.6633C10.5634 13.6633 10.5635 13.6633 10.5635 13.6633C10.5636 13.6633 10.5637 13.6633 10.5639 13.6633C10.5642 13.6633 10.5647 13.6633 10.5653 13.6633C10.5665 13.6633 10.5683 13.6632 10.5707 13.6632C10.5755 13.6632 10.5826 13.6632 10.5919 13.6632C10.6105 13.6632 10.6378 13.6631 10.6727 13.6629C10.7425 13.6626 10.843 13.6619 10.9654 13.6606C11.2102 13.6579 11.5433 13.6525 11.896 13.6417C12.2486 13.631 12.6218 13.6148 12.9467 13.5905C13.268 13.5664 13.5528 13.5337 13.722 13.4872L13.6557 13.2461C13.513 13.2854 13.2512 13.317 12.928 13.3412C12.6084 13.3651 12.2392 13.3812 11.8884 13.3919C11.5377 13.4026 11.2064 13.4079 10.9626 13.4106C10.8408 13.4119 10.7409 13.4126 10.6715 13.4129C10.6368 13.4131 10.6097 13.4132 10.5913 13.4132C10.5822 13.4132 10.5751 13.4132 10.5704 13.4132C10.5681 13.4132 10.5663 13.4133 10.5651 13.4133C10.5645 13.4133 10.5641 13.4133 10.5638 13.4133C10.5637 13.4133 10.5636 13.4133 10.5635 13.4133C10.5634 13.4133 10.5634 13.4133 10.5634 13.4133C10.5634 13.4133 10.5634 13.4133 10.5634 13.5383ZM7.4047 13.4872C7.57395 13.5337 7.85879 13.5664 8.18007 13.5905C8.50495 13.6148 8.87821 13.631 9.23076 13.6417C9.58351 13.6525 9.91657 13.6579 10.1614 13.6606C10.2838 13.6619 10.3842 13.6626 10.4541 13.6629C10.489 13.6631 10.5163 13.6632 10.5349 13.6632C10.5441 13.6632 10.5513 13.6632 10.5561 13.6632C10.5585 13.6632 10.5603 13.6633 10.5615 13.6633C10.5621 13.6633 10.5626 13.6633 10.5629 13.6633C10.5631 13.6633 10.5632 13.6633 10.5633 13.6633C10.5633 13.6633 10.5633 13.6633 10.5633 13.6633C10.5634 13.6633 10.5634 13.6633 10.5634 13.5383C10.5634 13.4133 10.5634 13.4133 10.5634 13.4133C10.5633 13.4133 10.5633 13.4133 10.5633 13.4133C10.5632 13.4133 10.5631 13.4133 10.563 13.4133C10.5627 13.4133 10.5622 13.4133 10.5616 13.4133C10.5605 13.4133 10.5587 13.4132 10.5563 13.4132C10.5516 13.4132 10.5446 13.4132 10.5354 13.4132C10.517 13.4132 10.49 13.4131 10.4553 13.4129C10.3859 13.4126 10.286 13.4119 10.1641 13.4106C9.92037 13.4079 9.58902 13.4026 9.23838 13.3919C8.88753 13.3812 8.51839 13.3651 8.19874 13.3412C7.8755 13.317 7.61368 13.2854 7.47101 13.2461L7.4047 13.4872ZM6.60957 12.6719C6.71251 13.0673 7.01622 13.3805 7.40476 13.4872L7.47095 13.2461C7.17104 13.1638 6.93256 12.9203 6.85151 12.6089L6.60957 12.6719ZM6.5634 10.6633C6.4384 10.6633 6.4384 10.6633 6.4384 10.6633C6.4384 10.6633 6.4384 10.6633 6.4384 10.6634C6.4384 10.6634 6.4384 10.6635 6.4384 10.6636C6.4384 10.6638 6.4384 10.664 6.4384 10.6644C6.4384 10.665 6.4384 10.6661 6.43841 10.6674C6.43841 10.67 6.43842 10.6739 6.43844 10.6789C6.43849 10.6891 6.43857 10.7039 6.43873 10.723C6.43906 10.7612 6.43972 10.8164 6.44104 10.8845C6.44367 11.0208 6.44893 11.2092 6.45945 11.4179C6.48032 11.8317 6.5224 12.3377 6.60959 12.6719L6.85149 12.6088C6.77154 12.3024 6.73005 11.8199 6.70914 11.4053C6.69877 11.1998 6.69358 11.0141 6.69099 10.8797C6.68969 10.8125 6.68905 10.7583 6.68872 10.7209C6.68856 10.7022 6.68848 10.6877 6.68844 10.6779C6.68842 10.673 6.68841 10.6693 6.68841 10.6669C6.6884 10.6656 6.6884 10.6647 6.6884 10.6641C6.6884 10.6638 6.6884 10.6636 6.6884 10.6634C6.6884 10.6634 6.6884 10.6633 6.6884 10.6633C6.6884 10.6633 6.6884 10.6633 6.6884 10.6633C6.6884 10.6633 6.6884 10.6633 6.5634 10.6633ZM6.60959 8.6546C6.5224 8.98876 6.48032 9.49485 6.45945 9.90863C6.44893 10.1173 6.44367 10.3058 6.44104 10.442C6.43972 10.5102 6.43906 10.5653 6.43873 10.6035C6.43857 10.6226 6.43849 10.6375 6.43844 10.6476C6.43842 10.6526 6.43841 10.6565 6.43841 10.6592C6.4384 10.6605 6.4384 10.6615 6.4384 10.6622C6.4384 10.6625 6.4384 10.6628 6.4384 10.663C6.4384 10.6631 6.4384 10.6631 6.4384 10.6632C6.4384 10.6632 6.4384 10.6632 6.4384 10.6632C6.4384 10.6633 6.4384 10.6633 6.5634 10.6633C6.6884 10.6633 6.6884 10.6633 6.6884 10.6633C6.6884 10.6633 6.6884 10.6632 6.6884 10.6632C6.6884 10.6632 6.6884 10.6632 6.6884 10.6631C6.6884 10.6629 6.6884 10.6627 6.6884 10.6624C6.6884 10.6618 6.6884 10.6609 6.68841 10.6597C6.68841 10.6572 6.68842 10.6535 6.68844 10.6486C6.68848 10.6388 6.68856 10.6244 6.68872 10.6057C6.68905 10.5683 6.68969 10.514 6.69099 10.4468C6.69358 10.3125 6.69877 10.1267 6.70914 9.92122C6.73005 9.50658 6.77154 9.02412 6.85149 8.71771L6.60959 8.6546ZM7.40477 7.8394C7.01622 7.94602 6.71251 8.2592 6.60957 8.65467L6.85151 8.71764C6.93257 8.40624 7.17104 8.16278 7.47093 8.08049L7.40477 7.8394ZM10.5634 7.78828C10.5634 7.66328 10.5634 7.66328 10.5633 7.66328C10.5633 7.66328 10.5633 7.66328 10.5633 7.66328C10.5632 7.66328 10.5631 7.66328 10.5629 7.66328C10.5626 7.66328 10.5621 7.66328 10.5615 7.66328C10.5603 7.66328 10.5585 7.66328 10.5561 7.66328C10.5513 7.66329 10.5441 7.6633 10.5349 7.66332C10.5163 7.66336 10.489 7.66345 10.4541 7.66362C10.3842 7.66395 10.2838 7.66462 10.1614 7.66597C9.91657 7.66866 9.58351 7.67403 9.23075 7.68479C8.8782 7.69555 8.50495 7.71171 8.18007 7.73605C7.85878 7.76012 7.57395 7.79285 7.40469 7.83942L7.47102 8.08046C7.61369 8.04121 7.87551 8.00956 8.19875 7.98535C8.51839 7.96141 8.88753 7.94538 9.23838 7.93468C9.58902 7.92398 9.92037 7.91863 10.1641 7.91595C10.286 7.91462 10.3859 7.91395 10.4553 7.91361C10.49 7.91345 10.517 7.91336 10.5354 7.91332C10.5446 7.9133 10.5516 7.91329 10.5563 7.91328C10.5587 7.91328 10.5605 7.91328 10.5616 7.91328C10.5622 7.91328 10.5627 7.91328 10.563 7.91328C10.5631 7.91328 10.5632 7.91328 10.5633 7.91328C10.5633 7.91328 10.5633 7.91328 10.5634 7.91328C10.5634 7.91328 10.5634 7.91328 10.5634 7.78828ZM13.722 7.83942C13.5528 7.79285 13.268 7.76012 12.9467 7.73605C12.6218 7.71171 12.2486 7.69555 11.896 7.68479C11.5433 7.67403 11.2102 7.66866 10.9654 7.66597C10.843 7.66462 10.7425 7.66395 10.6727 7.66362C10.6378 7.66345 10.6105 7.66336 10.5919 7.66332C10.5826 7.6633 10.5755 7.66329 10.5707 7.66328C10.5683 7.66328 10.5665 7.66328 10.5653 7.66328C10.5647 7.66328 10.5642 7.66328 10.5639 7.66328C10.5637 7.66328 10.5636 7.66328 10.5635 7.66328C10.5635 7.66328 10.5634 7.66328 10.5634 7.66328C10.5634 7.66328 10.5634 7.66328 10.5634 7.78828C10.5634 7.91328 10.5634 7.91328 10.5634 7.91328C10.5634 7.91328 10.5634 7.91328 10.5635 7.91328C10.5636 7.91328 10.5637 7.91328 10.5638 7.91328C10.5641 7.91328 10.5645 7.91328 10.5651 7.91328C10.5663 7.91328 10.5681 7.91328 10.5704 7.91328C10.5751 7.91329 10.5822 7.9133 10.5913 7.91332C10.6097 7.91336 10.6368 7.91345 10.6715 7.91361C10.7409 7.91395 10.8408 7.91462 10.9626 7.91595C11.2064 7.91863 11.5377 7.92398 11.8884 7.93468C12.2392 7.94538 12.6084 7.96141 12.928 7.98535C13.2512 8.00956 13.513 8.04121 13.6557 8.08046L13.722 7.83942Z" fill="white"/>
<path fill-rule="evenodd" clip-rule="evenodd" d="M9.81299 12.0371V9.53711L11.813 10.7872L9.81299 12.0371Z" stroke="white" stroke-width="0.25"/>
</svg>
