<?xml version="1.0" encoding="utf-8"?>
<svg version="1.1" id="Layer_1" fill="transparent" xmlns="http://www.w3.org/2000/svg" xmlns:xlink="http://www.w3.org/1999/xlink" x="0px" y="0px"
	 viewBox="0 0 1971.28 1751.7" style="enable-background:new 0 0 1971.28 1751.7;" xml:space="preserve">
<style type="text/css">
</style>
<rect width="1971.28" height="1751.7"/>
<g class="footer_logo_animation">
	<path class="st0" d="M357.86,839.13c14.48-3.42,29.26-6.11,44.27-7.96c23.39-370.64,334.12-661.36,709.49-655.83
		c386.89,5.71,695.91,323.97,690.2,710.84c-5.71,386.89-323.97,695.91-710.86,690.2c-110.32-1.63-214.32-28.66-306.5-75.5
		c-9.24,11.89-19.05,23.27-29.47,34.05c100.31,52.82,214.21,83.42,335.33,85.2c411.05,6.06,749.2-322.24,755.27-733.31
		c6.06-411.05-322.26-749.2-733.31-755.26C709.84,125.62,377.28,440.19,357.86,839.13z" fill="currentColor"/>
	<path class="st0" d="M125.65,1240.52c-2.68,181.54,142.3,330.85,323.84,333.53c87.51,1.29,167.56-31.76,227.29-86.67
		c10.89-9.99,21.08-20.75,30.54-32.13c29.35-35.31,51.41-76.84,63.97-122.41c7.24-26.35,11.31-54.03,11.73-82.63
		c0.82-55.69-12.24-108.35-36.03-154.67c0-0.06-0.03-0.08-0.08-0.11c-5.27-8.47-10.21-17.1-14.86-25.95l-0.03-0.03
		c-27.26-51.91-43.9-110.24-47.04-172.09c-0.45-9.15-0.62-18.38-0.49-27.66c3.39-230.18,192.74-414.06,422.96-410.66
		c230.21,3.4,414.08,192.77,410.69,422.96c-3.4,230.21-192.77,414.08-422.98,410.69c-82.84-1.22-159.65-26.52-223.93-69.13
		c0.48,9.26,0.65,18.58,0.51,27.97c-0.66,45.04-8.43,88.33-22.26,128.78c73.4,36.68,155.97,57.87,243.51,59.16
		c311.26,4.59,567.34-244.02,571.93-555.31c4.59-311.26-244.04-567.31-555.31-571.9C808.77,307.82,559.48,539.91,539,836.51
		c-0.71,10.25-1.14,20.59-1.3,31.02c-0.3,20.38,0.49,40.56,2.3,60.41c7.4,80.68,31.81,156.51,69.71,223.85
		c0.11,0.2,0.25,0.39,0.35,0.62c1.39,2.29,2.73,4.63,3.98,6.99c0.08,0.11,0.14,0.23,0.19,0.31c14.1,26.27,21.9,56.39,21.43,88.32
		c-0.63,42.5-15.83,81.4-40.8,111.93c-9.23,11.36-19.84,21.55-31.54,30.32c-31.02,23.4-69.79,37.03-111.67,36.41
		c-100.15-1.48-180.14-83.87-178.67-184.01c1.1-74.54,47-137.9,111.69-164.8c13.34-5.59,27.46-9.58,42.18-11.79l0-0.03
		c-13.15-46.67-21.58-95.26-24.73-145.28c-14.77,2.33-29.19,5.67-43.24,9.96C225.66,971.1,127.81,1093.88,125.65,1240.52z" fill="currentColor"/>
</g>
</svg>