<svg width="30" height="30" viewBox="0 0 21 21" fill="none" xmlns="http://www.w3.org/2000/svg">
<path opacity="0.25" fill-rule="evenodd" clip-rule="evenodd" d="M0 10.5C0 4.70101 4.70101 0 10.5 0C16.299 0 21 4.70101 21 10.5C21 16.299 16.299 21 10.5 21C4.70101 21 0 16.299 0 10.5Z" fill="#A855F7" fill-opacity="0.5"/>
<path d="M10.6503 9.1335L10.7751 9.12593L10.775 9.12474L10.6503 9.1335ZM10.666 9.39301L10.651 9.5171L10.7999 9.53514L10.7908 9.38545L10.666 9.39301ZM11.6733 7.60818L11.6319 7.49023L11.6306 7.4907L11.6733 7.60818ZM12.5914 7.58699L12.6276 7.46733L12.6247 7.46653L12.5914 7.58699ZM13.0373 7.82003L13.1076 7.71666L13.1071 7.71633L13.0373 7.82003ZM13.2943 7.9948L13.224 8.09817L13.2743 8.13233L13.3322 8.11393L13.2943 7.9948ZM13.5776 7.90477L13.5414 7.78512L13.5398 7.78564L13.5776 7.90477ZM14.0393 7.7247L13.9803 7.61443L13.9781 7.61567L14.0393 7.7247ZM13.8504 8.23314L13.7602 8.14657L13.7586 8.14828L13.8504 8.23314ZM14.1389 8.33376L14.0991 8.21527L14.097 8.21601L14.1389 8.33376ZM14.3593 8.34436L14.4669 8.40832L14.4701 8.40214L14.3593 8.34436ZM13.9921 8.75217L13.9046 8.66284L13.904 8.6634L13.9921 8.75217ZM13.3258 10.9077L13.2104 10.8597L13.2102 10.8603L13.3258 10.9077ZM11.5789 12.9627L11.6424 13.0703L11.6424 13.0703L11.5789 12.9627ZM8.13744 13.3546L8.10012 13.4739L8.10064 13.4741L8.13744 13.3546ZM7.55513 12.8462L7.55244 12.7212L7.55232 12.7212L7.55513 12.8462ZM8.96107 12.4542L9.02383 12.5624L9.02525 12.5615L8.96107 12.4542ZM9.24436 12.2848L9.30854 12.392L9.53979 12.2537L9.28481 12.1665L9.24436 12.2848ZM8.9191 12.1735L8.87843 12.2917L8.87866 12.2918L8.9191 12.1735ZM7.93809 11.305L7.81779 11.339L7.81852 11.3414L7.93809 11.305ZM8.21089 11.1884V11.3135L8.21306 11.3134L8.21089 11.1884ZM8.51516 11.1831L8.51733 11.3081L8.56869 11.0702L8.51516 11.1831ZM8.2581 11.0613L8.20175 11.173L8.20457 11.1743L8.2581 11.0613ZM7.53939 10.3834L7.65052 10.3262L7.65016 10.3255L7.53939 10.3834ZM7.35053 9.67371L7.43934 9.76168L7.44803 9.7529L7.45484 9.74259L7.35053 9.67371ZM7.5971 9.73197L7.64005 9.61454L7.63696 9.6135L7.5971 9.73197ZM7.79645 9.61016L7.88739 9.52437L7.88583 9.52278L7.79645 9.61016ZM7.47119 8.04247L7.35322 8.00109L7.3526 8.00295L7.47119 8.04247ZM7.56037 7.78825L7.64851 7.69961L7.50801 7.55991L7.44242 7.74687L7.56037 7.78825ZM7.90661 8.13251L7.81848 8.22115L7.81914 8.2218L7.90661 8.13251ZM10.4037 9.36123L10.3879 9.48523L10.3887 9.48533L10.4037 9.36123ZM3.5 10.5376C3.5 6.46448 6.80188 3.1626 10.875 3.1626V2.9126C6.66381 2.9126 3.25 6.32641 3.25 10.5376H3.5ZM10.875 17.9125C6.80188 17.9125 3.5 14.6106 3.5 10.5376H3.25C3.25 14.7487 6.66381 18.1625 10.875 18.1625V17.9125ZM18.2499 10.5376C18.2499 14.6106 14.948 17.9125 10.875 17.9125V18.1625C15.0861 18.1625 18.4999 14.7487 18.4999 10.5376H18.2499ZM10.875 3.1626C14.948 3.1626 18.2499 6.46448 18.2499 10.5376H18.4999C18.4999 6.32641 15.0861 2.9126 10.875 2.9126V3.1626ZM10.5255 9.14106L10.5413 9.40058L10.7908 9.38545L10.7751 9.12593L10.5255 9.14106ZM11.6306 7.4907C10.9255 7.74697 10.4743 8.41077 10.5256 9.14225L10.775 9.12474C10.7319 8.51097 11.1096 7.94605 11.716 7.72566L11.6306 7.4907ZM12.6247 7.46653C12.4758 7.42527 12.2937 7.40887 12.1195 7.41304C11.9457 7.4172 11.769 7.44209 11.6319 7.49024L11.7147 7.72612C11.8189 7.68953 11.9675 7.66675 12.1255 7.66297C12.2831 7.65919 12.4393 7.67457 12.558 7.70745L12.6247 7.46653ZM13.1071 7.71633C12.9615 7.61836 12.7501 7.50446 12.6276 7.46736L12.5551 7.70663C12.6425 7.73309 12.8297 7.83103 12.9675 7.92373L13.1071 7.71633ZM13.3646 7.89143L13.1076 7.71666L12.967 7.9234L13.224 8.09817L13.3646 7.89143ZM13.5398 7.78564L13.2565 7.87568L13.3322 8.11393L13.6155 8.0239L13.5398 7.78564ZM13.9781 7.61567C13.8958 7.66186 13.6964 7.73819 13.5414 7.78514L13.6138 8.0244C13.7736 7.97601 13.9939 7.89345 14.1004 7.83372L13.9781 7.61567ZM14.3321 7.66644C14.3321 7.63732 14.3222 7.60603 14.2993 7.58051C14.2786 7.55741 14.2547 7.5473 14.2398 7.54278C14.2125 7.53453 14.1884 7.53691 14.1794 7.53793C14.1568 7.54048 14.1339 7.54738 14.116 7.55352C14.0773 7.56683 14.0291 7.58839 13.9803 7.61445L14.0982 7.83494C14.1386 7.81333 14.1744 7.79783 14.1973 7.78995C14.2102 7.7855 14.2125 7.78577 14.2075 7.78634C14.2073 7.78637 14.19 7.78892 14.1674 7.78207C14.1548 7.77825 14.1327 7.76915 14.1132 7.74739C14.0915 7.72321 14.0821 7.69357 14.0821 7.66644H14.3321ZM13.9406 8.31968C14.0292 8.2273 14.1235 8.10094 14.1955 7.98665C14.2317 7.92926 14.2638 7.87248 14.2874 7.82232C14.2992 7.79729 14.3096 7.77215 14.3174 7.74824C14.3245 7.72617 14.3321 7.69699 14.3321 7.66644H14.0821C14.0821 7.6584 14.0837 7.65851 14.0796 7.67113C14.0761 7.68192 14.0701 7.69687 14.0612 7.71595C14.0433 7.75401 14.0167 7.8015 13.984 7.85334C13.9184 7.95752 13.8342 8.06949 13.7602 8.14659L13.9406 8.31968ZM14.097 8.21601C13.9863 8.25546 13.9032 8.28232 13.8438 8.29747C13.8141 8.30507 13.7935 8.30888 13.7802 8.31031C13.7635 8.31211 13.7699 8.30881 13.7858 8.3143C13.7957 8.31774 13.8127 8.32589 13.8279 8.3439C13.8439 8.36293 13.8506 8.38444 13.8519 8.40211C13.854 8.42978 13.843 8.4435 13.8494 8.43187C13.8593 8.41379 13.8869 8.37778 13.9422 8.31799L13.7586 8.14828C13.7037 8.20765 13.6566 8.26367 13.6302 8.31162C13.6185 8.33302 13.599 8.37326 13.6027 8.4211C13.6048 8.44885 13.6147 8.47886 13.6366 8.50482C13.6576 8.52976 13.683 8.54327 13.7039 8.55051C13.7417 8.56361 13.7805 8.56172 13.807 8.55887C13.8369 8.55564 13.8703 8.54874 13.9057 8.5397C13.9767 8.52158 14.0686 8.49151 14.1809 8.45151L14.097 8.21601ZM14.4701 8.40214C14.4766 8.38979 14.4836 8.37622 14.4894 8.36361C14.4946 8.3523 14.5025 8.33406 14.5069 8.31354C14.5105 8.29658 14.5187 8.24634 14.4839 8.199C14.4478 8.14998 14.3954 8.14366 14.375 8.1427C14.3518 8.14161 14.3298 8.14542 14.3143 8.14871C14.297 8.15235 14.278 8.15752 14.258 8.16347C14.2181 8.17533 14.1652 8.19303 14.0991 8.21529L14.1788 8.45224C14.2464 8.42948 14.2945 8.41342 14.3292 8.4031C14.3465 8.39796 14.3582 8.39494 14.3659 8.39332C14.3752 8.39136 14.3723 8.39285 14.3633 8.39242C14.357 8.39213 14.3136 8.38944 14.2825 8.34709C14.2525 8.30641 14.2614 8.26585 14.2623 8.26163C14.264 8.25386 14.2658 8.25142 14.2623 8.25902C14.2594 8.26532 14.2551 8.27377 14.2484 8.28657L14.4701 8.40214ZM14.0795 8.84149C14.1682 8.75469 14.254 8.66395 14.322 8.58784C14.3864 8.51572 14.4437 8.44701 14.4667 8.40822L14.2518 8.28049C14.2434 8.29467 14.2036 8.34512 14.1356 8.4213C14.0711 8.49348 13.9891 8.58017 13.9046 8.66284L14.0795 8.84149ZM13.8075 9.31886C13.8075 9.19621 13.8131 9.15703 13.837 9.11308C13.8669 9.05802 13.9284 8.99134 14.0801 8.84093L13.904 8.6634C13.762 8.80428 13.6687 8.89914 13.6173 8.9937C13.5599 9.09937 13.5575 9.19789 13.5575 9.31886H13.8075ZM13.4412 10.9557C13.5342 10.7322 13.6252 10.4215 13.693 10.1209C13.7604 9.82188 13.8075 9.52104 13.8075 9.31886H13.5575C13.5575 9.49272 13.5155 9.77182 13.4491 10.0659C13.3831 10.3586 13.2958 10.6543 13.2104 10.8597L13.4412 10.9557ZM11.6424 13.0703C12.3754 12.6373 13.1012 11.784 13.4414 10.9552L13.2102 10.8603C12.8894 11.6415 12.1988 12.4513 11.5153 12.8551L11.6424 13.0703ZM8.10064 13.4741C9.25092 13.8284 10.6147 13.6765 11.6424 13.0703L11.5154 12.855C10.5496 13.4246 9.25879 13.5693 8.17424 13.2351L8.10064 13.4741ZM6.99995 12.8885C6.99995 12.9205 7.01151 12.9445 7.01853 12.9567C7.02615 12.9699 7.03472 12.98 7.04093 12.9866C7.05332 12.9998 7.06738 13.0111 7.07912 13.0197C7.10339 13.0375 7.13496 13.0568 7.16943 13.0762C7.23936 13.1156 7.33437 13.1629 7.43914 13.2112C7.64838 13.3078 7.90685 13.4134 8.10012 13.4739L8.17476 13.2353C7.99556 13.1792 7.74778 13.0783 7.5439 12.9842C7.4421 12.9373 7.35382 12.8932 7.29212 12.8584C7.26076 12.8407 7.23942 12.8272 7.22724 12.8183C7.22074 12.8135 7.22069 12.8128 7.22353 12.8158C7.22495 12.8174 7.22988 12.8227 7.23506 12.8317C7.23964 12.8396 7.24995 12.8598 7.24995 12.8885H6.99995ZM7.55232 12.7212C7.4317 12.7239 7.3208 12.7307 7.23885 12.739C7.19838 12.7431 7.16232 12.7479 7.13485 12.7533C7.12197 12.7558 7.10586 12.7595 7.09081 12.765C7.08408 12.7674 7.07024 12.7728 7.05579 12.7829C7.04819 12.7882 6.99995 12.8219 6.99995 12.8885H7.24995C7.24995 12.9532 7.20323 12.9849 7.19858 12.9881C7.18709 12.9961 7.17765 12.9994 7.17669 12.9998C7.17318 13.001 7.17407 13.0004 7.18308 12.9986C7.19938 12.9954 7.2266 12.9916 7.26417 12.9877C7.33829 12.9802 7.44248 12.9737 7.55793 12.9711L7.55232 12.7212ZM8.89832 12.3461C8.49717 12.579 8.02475 12.711 7.55244 12.7212L7.55781 12.9711C8.07177 12.9601 8.58561 12.8167 9.02383 12.5623L8.89832 12.3461ZM9.18019 12.1775L8.8969 12.347L9.02525 12.5615L9.30854 12.392L9.18019 12.1775ZM8.87866 12.2918L9.20392 12.403L9.28481 12.1665L8.95955 12.0553L8.87866 12.2918ZM7.81852 11.3414C7.87997 11.543 8.02718 11.7389 8.21202 11.9024C8.39826 12.0671 8.63148 12.2067 8.87843 12.2917L8.95978 12.0553C8.74507 11.9814 8.54025 11.8589 8.37763 11.7151C8.2136 11.5701 8.10113 11.4111 8.05766 11.2685L7.81852 11.3414ZM8.21089 11.0634C8.13814 11.0634 8.07896 11.0637 8.03322 11.0662C7.99175 11.0684 7.94347 11.0728 7.90314 11.0902C7.88013 11.1 7.85347 11.1166 7.83258 11.1449C7.81119 11.1739 7.80329 11.2049 7.80144 11.231C7.79843 11.2732 7.81152 11.3167 7.81781 11.339L8.05837 11.2709C8.0545 11.2572 8.05242 11.2491 8.05131 11.2436C8.05011 11.2375 8.05138 11.2407 8.05081 11.2487C8.0501 11.2586 8.04655 11.276 8.03364 11.2935C8.02123 11.3103 8.0072 11.3175 8.00189 11.3198C7.99698 11.3219 8.00444 11.3181 8.04657 11.3158C8.08444 11.3138 8.13674 11.3134 8.21089 11.3134V11.0634ZM8.51298 11.0582L8.20871 11.0635L8.21306 11.3134L8.51733 11.3081L8.51298 11.0582ZM8.20457 11.1743L8.46163 11.2961L8.56869 11.0702L8.31163 10.9484L8.20457 11.1743ZM7.42826 10.4406C7.57878 10.7329 7.87828 11.0096 8.20177 11.1729L8.31443 10.9497C8.02937 10.8058 7.77279 10.5636 7.65051 10.3262L7.42826 10.4406ZM7.26172 9.58575C7.23257 9.61517 7.22509 9.64983 7.22272 9.66227C7.21952 9.67906 7.21892 9.69523 7.21902 9.70793C7.2192 9.73383 7.2225 9.76326 7.22698 9.7924C7.23609 9.85175 7.25267 9.92608 7.27295 10.0029C7.31294 10.1543 7.37215 10.3333 7.42861 10.4413L7.65016 10.3255C7.60695 10.2428 7.55337 10.0856 7.51466 9.93904C7.49561 9.86689 7.48136 9.80186 7.47408 9.75446C7.47036 9.73023 7.46907 9.71443 7.46901 9.70613C7.46898 9.70173 7.46935 9.70356 7.46829 9.70912C7.46806 9.71034 7.4639 9.73688 7.43934 9.76168L7.26172 9.58575ZM7.63696 9.6135C7.57335 9.59209 7.51059 9.57228 7.46112 9.5598C7.43712 9.55374 7.41142 9.54815 7.38848 9.5458C7.37764 9.54469 7.36083 9.54356 7.34243 9.54601C7.33179 9.54744 7.27943 9.55453 7.24622 9.60483L7.45484 9.74259C7.43864 9.76712 7.41774 9.77957 7.4045 9.78547C7.39144 9.79129 7.38062 9.79314 7.37551 9.79382C7.36564 9.79513 7.36014 9.79421 7.36307 9.79451C7.36767 9.79498 7.37935 9.797 7.39994 9.80219C7.43966 9.81222 7.49493 9.82948 7.55723 9.85044L7.63696 9.6135ZM7.70552 9.69593C7.75744 9.75097 7.78573 9.78639 7.79771 9.80624C7.80028 9.8105 7.80084 9.81203 7.8005 9.8112C7.8003 9.81072 7.79783 9.80478 7.79674 9.79472C7.79562 9.78425 7.79572 9.76608 7.80462 9.74541C7.81404 9.72353 7.82952 9.70775 7.84511 9.69803C7.85921 9.68925 7.87113 9.68673 7.87566 9.68597C7.8805 9.68516 7.88235 9.68548 7.87974 9.68537C7.87413 9.68514 7.86138 9.68361 7.83891 9.67836C7.79444 9.66796 7.72936 9.64725 7.64004 9.61458L7.55415 9.84936C7.64582 9.88289 7.72238 9.90786 7.78202 9.9218C7.8116 9.92871 7.84151 9.93401 7.86941 9.93516C7.89282 9.93613 7.93668 9.93553 7.97729 9.91023C8.0006 9.89572 8.02155 9.87375 8.03423 9.84428C8.0464 9.81603 8.04756 9.78888 8.04531 9.76801C8.04124 9.73005 8.02429 9.69784 8.01175 9.67707C7.98487 9.63253 7.94037 9.58056 7.88737 9.52438L7.70552 9.69593ZM7.3526 8.00295C7.15039 8.60971 7.27777 9.25836 7.70706 9.69753L7.88583 9.52278C7.52821 9.15693 7.41427 8.60863 7.58978 8.08199L7.3526 8.00295ZM7.44242 7.74687L7.35324 8.00109L7.58914 8.08385L7.67832 7.82963L7.44242 7.74687ZM7.99475 8.04386L7.64851 7.69961L7.47224 7.87689L7.81848 8.22115L7.99475 8.04386ZM10.4196 9.23724C9.493 9.11903 8.68372 8.71881 7.99409 8.04321L7.81914 8.2218C8.54595 8.93382 9.40492 9.35982 10.3879 9.48523L10.4196 9.23724ZM10.6811 9.26892L10.4188 9.23714L10.3887 9.48533L10.651 9.5171L10.6811 9.26892Z" fill="currentColor"/>
</svg>
