<svg width="21" height="15" viewBox="0 0 21 15" fill="none" xmlns="http://www.w3.org/2000/svg">
<path d="M10.0207 14.012H10.0007C9.93865 14.012 3.73565 14 2.17065 13.575C1.74779 13.4611 1.36227 13.2381 1.05269 12.9283C0.743111 12.6186 0.52033 12.2329 0.406652 11.81C0.125236 10.2224 -0.0106613 8.61235 0.000652196 7C-0.00661314 5.38501 0.132961 3.77271 0.417652 2.183C0.534542 1.75937 0.758352 1.3729 1.0676 1.06067C1.37685 0.748445 1.76117 0.520943 2.18365 0.4C3.70565 8.9407e-08 9.73765 0 9.99365 0H10.0147C10.0777 0 16.2967 0.0119998 17.8457 0.437C18.7047 0.67 19.3757 1.341 19.6077 2.2C19.8977 3.794 20.0347 5.411 20.0147 7.031C20.0217 8.64403 19.8817 10.2543 19.5967 11.842C19.4815 12.2645 19.2578 12.6494 18.9478 12.9587C18.6379 13.268 18.2524 13.4908 17.8297 13.605C16.3097 14.008 10.2767 14.012 10.0207 14.012ZM8.02065 4.005L8.01565 10.005L13.2277 7.005L8.02065 4.005Z" fill="currentColor"/>
</svg>
